if (_typeface_js && _typeface_js.loadFace) _typeface_js.loadFace({"glyphs":{"ユ":{"x_min":20.828125,"x_max":918.0625,"ha":939,"o":"m 761 218 q 784 186 752 186 l 834 186 q 893 162 869 186 q 918 104 918 138 q 893 45 918 69 q 833 22 868 22 l 102 22 q 45 45 69 22 q 20 104 20 69 q 45 162 20 138 q 102 186 69 186 l 470 186 q 511 218 502 186 l 551 373 q 526 405 558 405 l 312 405 q 138 477 211 405 q 65 650 65 548 q 136 822 65 751 q 308 893 208 893 l 619 893 q 792 820 722 893 q 862 650 862 748 q 855 590 862 620 l 761 218 "},"プ":{"x_min":20.828125,"x_max":1213.890625,"ha":1006,"o":"m 901 981 q 947 1090 901 1045 q 1056 1136 993 1136 q 1168 1090 1122 1136 q 1213 981 1213 1045 q 1168 870 1213 916 q 1056 825 1122 825 q 946 870 991 825 q 901 981 901 915 m 1002 981 q 1018 941 1002 958 q 1056 925 1034 925 q 1096 941 1080 925 q 1112 981 1112 958 q 1096 1020 1112 1004 q 1056 1036 1080 1036 q 1018 1020 1034 1036 q 1002 981 1002 1004 m 268 415 q 98 484 172 415 q 20 658 20 556 q 91 830 20 759 q 263 901 162 901 l 741 901 q 915 829 845 901 q 984 659 984 756 q 966 566 984 612 l 765 66 q 655 -9 734 -9 q 608 0 630 -9 q 531 111 531 30 q 540 158 531 134 l 631 386 q 611 415 643 415 l 268 415 "},"ラ":{"x_min":20.828125,"x_max":955.5625,"ha":976,"o":"m 37 679 q 108 851 37 780 q 280 922 179 922 l 694 922 q 867 852 795 922 q 938 679 938 781 q 867 506 938 577 q 694 434 795 434 l 284 434 q 110 506 183 434 q 37 679 37 577 m 102 227 q 44 252 68 227 q 20 311 20 276 q 45 369 20 345 q 102 393 69 393 l 873 393 q 931 368 908 393 q 955 311 955 344 q 933 256 955 280 l 779 37 q 681 -15 743 -15 q 611 8 643 -15 q 558 108 558 43 q 579 176 558 147 l 598 202 q 584 227 616 227 l 102 227 "},"ム":{"x_min":0,"x_max":968.0625,"ha":1010,"o":"m 952 320 q 968 244 968 283 q 893 75 968 148 q 719 1 818 1 l 244 1 q 69 70 138 1 q 0 240 0 140 q 16 341 0 301 l 234 886 q 311 937 255 937 q 369 913 345 937 q 393 855 393 888 q 386 825 393 840 l 263 518 q 283 488 251 488 l 588 488 q 615 516 622 490 l 608 533 q 598 580 598 556 q 675 693 598 662 q 723 701 698 701 q 833 625 802 701 l 952 320 "},"パ":{"x_min":20.828125,"x_max":1108.328125,"ha":1011,"o":"m 795 981 q 841 1090 795 1045 q 952 1136 887 1136 q 1062 1090 1016 1136 q 1108 981 1108 1045 q 1063 870 1108 916 q 952 825 1018 825 q 841 870 887 825 q 795 981 795 915 m 898 981 q 913 941 898 958 q 952 925 929 925 q 990 941 975 925 q 1006 981 1006 958 q 990 1020 1006 1004 q 952 1036 975 1036 q 913 1020 929 1036 q 898 981 898 1004 m 502 184 q 416 46 484 100 q 263 -6 348 -6 q 92 63 163 -6 q 20 234 20 133 q 26 286 20 259 l 122 741 q 210 881 141 826 q 365 937 279 937 q 412 933 388 937 q 550 847 497 915 q 604 694 604 779 q 600 643 604 668 l 502 184 m 994 154 q 997 127 997 141 q 962 43 997 79 q 876 6 927 6 q 799 34 833 6 q 756 104 765 62 l 676 488 q 673 515 673 501 q 708 600 673 563 q 793 636 743 636 q 870 608 836 636 q 913 537 905 580 l 994 154 "},"ペ":{"x_min":20.828125,"x_max":1143.0625,"ha":1032,"o":"m 830 981 q 875 1090 830 1045 q 986 1136 920 1136 q 1096 1090 1050 1136 q 1143 981 1143 1045 q 1097 870 1143 916 q 986 825 1051 825 q 875 870 920 825 q 830 981 830 915 m 931 981 q 947 941 931 958 q 986 925 963 925 q 1025 941 1009 925 q 1040 981 1040 958 q 1025 1020 1040 1004 q 986 1036 1009 1036 q 947 1020 963 1036 q 931 981 931 1004 m 308 434 q 268 434 288 459 l 236 395 q 143 350 198 350 q 65 377 100 350 q 20 472 20 415 q 47 548 20 515 l 252 798 q 454 897 334 897 q 633 811 561 897 l 950 430 q 1008 272 1008 361 q 920 87 1008 159 q 763 29 851 29 q 577 116 651 29 l 308 434 "},"ッ":{"x_min":20.828125,"x_max":730.5625,"ha":751,"o":"m 136 584 q 77 629 125 630 q 37 610 54 627 q 20 569 20 593 q 22 556 20 562 l 70 352 q 130 306 81 305 q 170 325 154 308 q 186 366 186 343 q 184 379 186 373 l 136 584 m 341 415 q 356 413 345 393 l 427 545 q 572 631 475 631 q 645 612 611 631 q 730 472 730 566 q 711 395 730 431 l 531 61 q 391 -22 486 -22 q 315 -2 351 -22 q 231 136 231 43 q 251 213 231 177 l 290 288 q 293 297 293 293 q 281 308 293 305 q 236 352 244 316 l 187 556 q 184 569 184 562 q 201 610 184 593 q 243 629 218 627 q 301 584 290 630 l 341 415 "},"キ":{"x_min":20.828125,"x_max":929.171875,"ha":950,"o":"m 640 134 q 612 105 611 134 q 612 93 612 93 q 593 21 618 52 q 527 -13 568 -9 q 456 6 487 -18 q 420 72 425 31 l 418 102 q 383 134 415 134 l 116 134 q 57 157 81 134 q 33 215 33 180 q 56 274 33 250 q 116 298 80 298 l 365 298 q 393 329 397 298 l 390 343 q 354 375 386 375 l 268 375 q 93 445 166 375 q 20 618 20 516 q 91 790 20 719 q 263 861 162 861 l 309 861 q 338 887 333 861 q 419 951 351 944 q 488 933 462 956 q 520 887 500 922 q 551 861 536 861 l 686 861 q 858 790 787 861 q 929 618 929 719 q 858 445 929 516 q 686 375 787 375 l 612 375 q 584 343 580 375 l 586 329 q 622 298 590 298 l 833 298 q 892 274 868 298 q 916 215 916 250 q 891 157 916 180 q 831 134 866 134 l 640 134 "},"レ":{"x_min":41.671875,"x_max":941.671875,"ha":963,"o":"m 529 276 q 558 256 529 244 l 826 366 q 856 373 841 373 q 917 349 893 373 q 941 291 941 325 q 890 215 941 236 l 380 4 q 291 -12 338 -12 q 119 51 191 -12 q 41 227 41 119 l 41 680 q 112 854 41 781 q 284 927 183 927 q 457 856 386 927 q 529 684 529 786 l 529 276 "},"イ":{"x_min":20.828125,"x_max":981.953125,"ha":1003,"o":"m 673 355 q 702 401 673 387 l 852 480 q 947 570 913 512 q 981 695 981 629 q 954 808 981 755 q 863 905 922 870 q 738 940 805 940 q 626 912 679 940 q 151 663 625 911 q 54 573 88 631 q 20 448 20 515 q 48 334 20 388 q 139 239 80 273 q 265 205 198 205 q 380 233 326 205 l 426 256 q 454 240 454 272 l 454 95 q 486 18 454 51 q 563 -13 518 -13 q 641 18 609 -13 q 673 95 673 51 l 673 355 "},"ス":{"x_min":20.828125,"x_max":933.328125,"ha":954,"o":"m 855 208 q 906 108 906 168 q 884 38 906 70 q 781 -13 847 -13 q 712 9 743 -13 l 483 181 q 431 181 456 200 l 198 11 q 151 -4 177 -4 q 84 30 108 -4 q 68 79 68 52 q 104 145 68 119 l 448 401 q 455 413 455 406 q 438 426 455 426 l 268 426 q 93 497 166 426 q 20 670 20 569 q 91 843 20 772 q 263 915 162 915 l 690 915 q 869 838 798 915 q 933 669 933 768 q 831 473 933 547 l 690 370 q 690 333 665 352 l 855 208 "},"．":{"x_min":41.671875,"x_max":280.5625,"ha":322,"o":"m 280 320 q 245 236 280 270 q 162 201 211 201 q 76 236 111 201 q 41 320 41 270 q 77 405 41 370 q 162 440 112 440 q 245 405 211 440 q 280 320 280 370 "},"デ":{"x_min":20.828125,"x_max":1077.1875,"ha":975,"o":"m 780 959 q 769 1019 754 986 l 806 1102 q 855 1136 820 1136 q 893 1119 877 1136 q 904 1059 919 1093 l 868 976 q 819 943 854 943 q 780 959 797 943 m 948 919 q 936 979 922 945 l 973 1062 q 1022 1094 987 1094 q 1061 1079 1045 1094 q 1072 1019 1086 1051 l 1036 934 q 987 902 1022 902 q 948 919 965 902 m 694 922 q 867 852 795 922 q 938 679 938 781 q 867 506 938 577 q 694 436 795 436 l 284 436 q 110 506 183 436 q 37 679 37 577 q 108 851 37 780 q 280 922 179 922 l 694 922 m 102 227 q 45 252 69 227 q 20 311 20 276 q 44 369 20 345 q 102 393 68 393 l 873 393 q 931 369 906 393 q 955 311 955 345 q 930 252 955 277 q 872 227 905 227 l 697 227 q 654 198 666 227 l 604 68 q 490 -13 572 -13 q 403 22 440 -13 q 366 108 366 58 q 373 147 366 129 l 394 198 q 397 208 397 202 q 373 227 397 227 l 102 227 "},"ズ":{"x_min":20.828125,"x_max":1061.90625,"ha":953,"o":"m 765 959 q 752 1019 738 986 l 791 1102 q 840 1136 805 1136 q 877 1119 862 1136 q 888 1059 902 1093 l 852 976 q 804 943 838 943 q 765 959 781 943 m 933 919 q 920 979 906 945 l 956 1062 q 1006 1094 970 1094 q 1045 1079 1029 1094 q 1056 1019 1070 1051 l 1020 934 q 972 902 1005 902 q 933 919 948 902 m 855 208 q 906 108 906 168 q 884 38 906 70 q 781 -13 847 -13 q 712 9 743 -13 l 483 181 q 431 181 456 200 l 198 11 q 151 -4 177 -4 q 84 30 108 -4 q 68 79 68 52 q 104 145 68 119 l 448 401 q 455 413 455 406 q 438 426 455 426 l 268 426 q 93 497 166 426 q 20 670 20 569 q 91 843 20 772 q 263 915 162 915 l 690 915 q 863 843 793 915 q 933 670 933 772 q 831 473 933 547 l 690 370 q 690 333 665 352 l 855 208 "},"オ":{"x_min":20.828125,"x_max":1000,"ha":1021,"o":"m 651 350 q 619 381 651 381 l 537 381 q 491 352 505 381 l 352 58 q 243 -13 319 -13 q 194 -4 218 -13 q 120 102 120 27 q 131 155 120 130 l 225 358 q 227 370 227 365 q 212 387 227 384 q 75 472 129 406 q 20 625 20 538 q 91 797 20 726 q 263 869 162 869 l 630 869 q 650 893 650 869 q 678 939 651 918 q 733 961 705 961 q 790 936 766 961 q 815 877 815 911 q 833 855 818 859 q 953 767 906 831 q 1000 625 1000 702 q 956 485 1000 548 q 841 395 912 422 q 815 365 815 386 l 815 72 q 790 15 815 38 q 733 -8 766 -8 q 675 14 698 -8 q 651 72 651 37 l 651 350 "},"シ":{"x_min":20.828125,"x_max":994.453125,"ha":1015,"o":"m 343 447 q 516 518 445 447 q 587 691 587 588 q 515 863 587 793 q 343 934 444 934 l 263 934 q 91 863 162 934 q 20 691 20 793 q 93 518 20 588 q 268 447 166 447 l 343 447 m 957 552 q 872 586 920 586 q 784 547 822 586 l 441 191 q 408 111 408 158 q 448 20 408 58 q 530 -11 483 -11 q 619 26 581 -11 q 961 381 629 37 q 994 466 994 416 q 957 552 994 518 m 491 336 q 468 394 491 370 q 409 418 444 418 l 195 418 q 136 394 161 418 q 112 336 112 370 q 136 277 112 301 q 195 254 159 254 l 408 254 q 467 277 443 254 q 491 336 491 301 "},"の":{"x_min":20.828125,"x_max":933.328125,"ha":954,"o":"m 547 141 q 543 108 543 126 q 605 1 543 36 q 663 -12 633 -12 q 737 11 704 -12 q 781 75 770 34 l 925 591 q 933 656 933 623 q 861 828 933 755 q 688 901 790 901 l 266 901 q 95 828 170 901 q 20 661 20 755 q 29 604 20 631 l 186 54 q 265 -6 204 -6 q 337 31 311 -6 l 572 391 q 605 415 587 415 q 615 387 623 415 l 547 141 m 311 286 q 297 277 305 276 q 287 290 290 277 l 261 387 q 281 415 254 415 l 363 415 q 376 391 391 415 l 311 286 "},"ピ":{"x_min":41.671875,"x_max":1106.953125,"ha":968,"o":"m 794 981 q 840 1090 794 1045 q 950 1136 886 1136 q 1061 1090 1015 1136 q 1106 981 1106 1045 q 1061 870 1106 916 q 950 825 1015 825 q 839 870 884 825 q 794 981 794 915 m 895 981 q 911 941 895 958 q 950 925 927 925 q 989 941 973 925 q 1005 981 1005 958 q 989 1020 1005 1004 q 950 1036 973 1036 q 911 1020 927 1036 q 895 981 895 1004 m 316 312 q 284 280 284 308 q 284 250 284 263 q 362 170 286 176 l 805 170 q 864 146 840 170 q 888 87 888 122 q 863 30 888 54 q 804 6 838 6 l 284 6 q 112 77 183 6 q 41 250 41 148 l 41 833 q 77 920 41 884 q 163 955 112 955 q 249 918 213 955 q 284 831 284 881 q 301 806 284 812 q 316 806 306 805 l 654 854 q 691 856 672 856 q 865 787 794 856 q 936 613 936 718 q 877 454 936 523 q 730 373 819 386 l 316 312 "},"セ":{"x_min":20.828125,"x_max":998.609375,"ha":1019,"o":"m 681 372 q 704 355 704 370 q 697 334 704 351 q 691 304 691 318 q 734 230 691 252 q 772 220 752 220 q 845 265 822 220 l 980 523 q 998 616 998 569 q 928 786 998 713 q 755 859 858 859 l 454 859 q 422 886 436 859 q 320 955 387 955 q 216 881 241 955 q 211 863 211 866 q 188 847 204 852 q 67 759 113 822 q 20 618 20 695 q 65 476 20 540 q 184 387 111 412 q 211 348 211 376 l 211 245 q 281 73 211 144 q 455 2 352 2 l 827 2 q 886 26 862 2 q 911 83 911 50 q 887 143 911 119 q 829 166 863 166 l 462 166 q 430 198 430 166 l 430 340 q 462 372 430 372 l 681 372 "},"ー":{"x_min":20.828125,"x_max":627.78125,"ha":649,"o":"m 166 465 l 481 465 q 585 423 543 465 q 627 322 627 381 q 584 218 627 261 q 480 176 541 176 l 166 176 q 63 218 105 176 q 20 322 20 261 q 63 423 20 381 q 166 465 106 465 "},"？":{"x_min":20.828125,"x_max":956.953125,"ha":978,"o":"m 473 238 q 366 202 411 238 q 322 116 322 166 q 366 29 322 65 q 473 -6 411 -6 q 581 29 537 -6 q 626 116 626 65 q 581 202 626 166 q 473 238 537 238 m 520 287 q 477 275 501 275 q 418 305 438 275 q 402 345 402 325 q 531 469 402 405 q 545 479 545 473 q 523 486 545 487 q 311 438 455 476 q 218 416 273 420 q 69 463 123 409 q 20 594 20 512 q 120 813 20 718 q 416 922 233 922 l 568 922 q 740 887 665 916 q 952 637 920 815 q 956 591 956 612 q 873 437 956 491 q 694 366 829 406 q 520 287 569 327 "},"ノ":{"x_min":20.828125,"x_max":770.828125,"ha":792,"o":"m 737 576 l 477 112 q 268 -12 406 -12 q 145 20 204 -12 q 20 227 20 91 q 54 351 20 293 l 312 812 q 527 938 383 938 q 645 908 590 938 q 770 698 770 837 q 737 576 770 634 "},"サ":{"x_min":20.828125,"x_max":1033.328125,"ha":1054,"o":"m 390 377 q 366 351 370 377 q 341 296 365 319 q 286 273 318 273 q 227 297 252 273 q 204 356 202 322 q 177 394 205 387 q 64 480 108 413 q 20 622 20 547 q 64 759 20 697 q 177 848 108 822 q 204 884 188 855 q 286 956 215 956 q 366 886 351 956 q 387 865 380 865 l 588 865 q 619 888 609 865 q 663 940 631 920 q 730 959 695 959 q 800 937 766 959 q 843 881 833 915 q 869 851 850 856 q 988 764 944 827 q 1033 622 1033 701 q 984 473 1033 540 q 856 387 934 406 q 829 359 844 376 l 751 79 q 707 13 740 38 q 633 -12 675 -12 q 546 22 581 -12 q 511 105 511 56 q 516 138 511 122 l 575 347 q 551 377 583 377 l 390 377 "},"ェ":{"x_min":20.828125,"x_max":701.390625,"ha":722,"o":"m 468 138 q 443 162 443 138 l 443 280 q 468 304 443 304 l 519 304 q 648 357 595 304 q 701 486 701 411 q 648 615 701 562 q 519 669 595 669 l 202 669 q 74 615 127 669 q 20 486 20 562 q 75 356 20 409 q 206 304 129 304 l 255 304 q 279 280 279 304 l 279 162 q 255 138 279 138 l 84 138 q 40 120 58 138 q 23 76 23 102 q 40 34 23 51 q 84 16 58 16 l 637 16 q 681 34 662 16 q 700 76 700 51 q 681 120 700 102 q 637 138 663 138 l 468 138 "},"ギ":{"x_min":20.828125,"x_max":1051.390625,"ha":940,"o":"m 740 998 q 744 1019 740 1009 l 781 1102 q 831 1134 797 1134 q 869 1118 854 1134 q 884 1080 884 1102 q 880 1059 884 1069 l 844 976 q 794 944 830 944 q 756 960 772 944 q 740 998 740 976 m 908 958 q 912 979 908 969 l 948 1062 q 998 1094 962 1094 q 1036 1078 1020 1094 q 1051 1040 1051 1062 q 1047 1019 1051 1029 l 1011 934 q 962 902 997 902 q 924 918 940 902 q 908 958 908 934 m 640 134 q 612 105 611 134 q 612 93 612 93 q 593 21 618 52 q 527 -13 568 -9 q 456 6 487 -18 q 420 72 425 31 l 418 102 q 383 134 415 134 l 116 134 q 57 157 81 134 q 33 215 33 180 q 56 274 33 250 q 116 298 80 298 l 365 298 q 393 329 397 298 l 390 343 q 354 375 386 375 l 268 375 q 93 445 166 375 q 20 618 20 516 q 91 790 20 719 q 263 861 162 861 l 309 861 q 338 887 333 861 q 419 951 351 944 q 481 937 452 955 q 520 886 509 919 q 551 861 531 861 l 686 861 q 858 790 787 861 q 929 618 929 719 q 858 445 929 516 q 686 375 787 375 l 612 375 q 584 343 580 375 l 586 329 q 622 298 590 298 l 833 298 q 892 274 868 298 q 916 215 916 250 q 891 157 916 180 q 831 134 866 134 l 640 134 "},"ゲ":{"x_min":20.828125,"x_max":1153.578125,"ha":1038,"o":"m 856 959 q 845 1019 830 986 l 883 1102 q 931 1136 897 1136 q 969 1119 954 1136 q 980 1059 994 1093 l 944 976 q 895 943 930 943 q 856 959 873 943 m 1025 919 q 1012 979 998 945 l 1048 1062 q 1098 1094 1063 1094 q 1137 1079 1122 1094 q 1148 1019 1162 1051 l 1112 934 q 1063 902 1098 902 q 1025 919 1041 902 m 218 373 q 186 351 193 373 q 183 341 184 345 q 104 279 166 279 q 45 304 70 279 q 20 362 20 329 q 23 384 20 373 l 165 891 q 243 951 181 951 q 297 931 270 951 q 324 886 325 911 q 345 861 323 861 l 772 861 q 944 790 873 861 q 1015 618 1015 719 q 958 459 1015 527 q 813 377 901 391 q 800 372 805 375 q 777 347 784 363 l 662 62 q 551 -13 630 -13 q 504 -5 527 -13 q 426 104 426 26 q 437 154 426 129 l 513 344 q 494 373 525 373 l 218 373 "},"ャ":{"x_min":20.828125,"x_max":711.109375,"ha":732,"o":"m 395 75 q 379 10 400 38 q 322 -23 358 -18 q 258 -6 287 -29 q 223 50 229 15 l 198 231 q 177 252 197 250 q 66 309 112 256 q 20 426 20 361 q 137 588 20 548 q 158 612 151 594 q 225 663 173 656 q 315 616 287 673 q 340 598 325 598 l 536 598 q 659 544 608 598 q 711 423 711 490 q 695 359 711 388 l 575 129 q 526 97 559 97 q 483 113 501 97 q 465 155 465 130 q 472 183 465 169 l 498 231 q 486 251 509 251 l 394 251 q 375 229 370 251 l 395 75 "},"ニ":{"x_min":20.828125,"x_max":929.171875,"ha":950,"o":"m 686 877 q 858 806 787 877 q 929 634 929 736 q 858 462 929 533 q 686 391 787 391 l 268 391 q 93 461 166 391 q 20 634 20 531 q 91 806 20 736 q 263 877 162 877 l 686 877 m 926 122 q 901 64 926 87 q 843 41 876 41 l 105 41 q 47 64 72 41 q 23 122 23 87 q 47 180 23 156 q 105 204 70 204 l 844 204 q 902 180 877 204 q 926 122 926 156 "},"ベ":{"x_min":20.828125,"x_max":1125.796875,"ha":1031,"o":"m 308 434 q 268 434 288 459 l 236 395 q 143 350 198 350 q 65 377 100 350 q 20 472 20 415 q 47 548 20 515 l 252 798 q 454 897 334 897 q 633 811 561 897 l 950 430 q 1008 272 1008 361 q 920 87 1008 159 q 763 29 851 29 q 577 116 651 29 l 308 434 m 829 958 q 816 1018 802 984 l 854 1101 q 904 1133 869 1133 q 941 1118 925 1133 q 952 1058 966 1090 l 916 973 q 868 941 902 941 q 829 958 845 941 m 997 918 q 984 976 970 944 l 1020 1061 q 1070 1093 1034 1093 q 1109 1076 1093 1093 q 1120 1018 1134 1050 l 1083 933 q 1036 901 1069 901 q 997 918 1012 901 "},"ヤ":{"x_min":20.828125,"x_max":988.890625,"ha":1010,"o":"m 547 123 q 523 33 552 73 q 444 -15 494 -6 q 354 8 395 -22 q 305 87 312 38 l 270 343 q 241 372 268 368 q 85 450 150 377 q 20 615 20 523 q 67 757 20 690 q 183 843 113 825 q 213 877 202 848 q 306 950 234 938 q 434 881 394 962 q 469 856 447 856 l 743 856 q 916 781 844 856 q 988 611 988 705 q 968 522 988 562 l 798 197 q 729 154 776 154 q 688 163 708 154 q 643 234 643 187 q 654 275 643 255 l 690 343 q 673 370 705 370 l 544 370 q 516 338 512 370 l 547 123 "},"ゼ":{"x_min":20.828125,"x_max":1131.359375,"ha":1015,"o":"m 834 959 q 823 1019 808 986 l 861 1102 q 909 1136 875 1136 q 947 1119 931 1136 q 958 1059 972 1093 l 922 976 q 873 943 908 943 q 834 959 851 943 m 1002 919 q 990 979 976 945 l 1027 1062 q 1076 1094 1041 1094 q 1115 1079 1100 1094 q 1126 1019 1140 1051 l 1090 934 q 1041 902 1076 902 q 1002 919 1019 902 m 681 372 q 704 355 704 370 q 697 334 704 351 q 691 304 691 318 q 734 230 691 252 q 772 220 752 220 q 845 265 822 220 l 980 523 q 998 616 998 569 q 928 786 998 713 q 755 859 858 859 l 454 859 q 422 886 436 859 q 320 955 387 955 q 216 881 241 955 q 211 863 211 866 q 188 847 204 852 q 67 759 113 822 q 20 618 20 695 q 65 476 20 540 q 184 387 111 412 q 211 348 211 376 l 211 245 q 281 73 211 144 q 455 2 352 2 l 827 2 q 886 26 862 2 q 911 83 911 50 q 887 143 911 119 q 829 166 863 166 l 462 166 q 430 198 430 166 l 430 340 q 462 372 430 372 l 681 372 "},"ヘ":{"x_min":20.828125,"x_max":1008.328125,"ha":1029,"o":"m 308 434 q 268 434 288 459 l 236 395 q 143 350 198 350 q 65 377 100 350 q 20 472 20 415 q 47 548 20 515 l 252 798 q 454 897 334 897 q 633 811 561 897 l 950 430 q 1008 272 1008 361 q 920 87 1008 159 q 763 29 851 29 q 577 116 651 29 l 308 434 "},"モ":{"x_min":0,"x_max":965.28125,"ha":1007,"o":"m 538 223 q 511 195 511 220 q 543 166 512 166 l 776 165 q 835 141 811 165 q 859 83 859 118 q 834 25 859 48 q 775 1 809 1 l 541 1 q 358 68 426 1 q 302 194 302 125 q 270 223 283 223 l 113 223 q 56 247 80 223 q 31 305 31 270 q 56 363 31 338 q 113 387 80 387 l 270 387 q 295 411 295 387 q 270 433 295 433 l 247 433 q 72 503 145 433 q 0 676 0 573 q 70 848 0 777 q 243 919 141 919 l 722 919 q 892 851 819 919 q 965 687 965 783 q 896 506 965 580 q 722 433 827 433 l 538 433 q 512 411 512 433 q 538 387 512 387 l 851 387 q 909 363 884 387 q 933 305 933 340 q 909 247 933 270 q 850 223 884 223 l 538 223 "},"マ":{"x_min":0,"x_max":981.953125,"ha":1024,"o":"m 647 188 q 627 180 634 191 q 627 161 622 170 l 634 143 q 637 115 637 129 q 601 29 637 65 q 515 -6 565 -6 q 406 59 443 -6 l 334 195 q 320 250 320 222 q 356 337 320 301 q 443 373 393 373 q 543 320 506 373 q 565 308 551 308 q 584 320 575 308 l 634 383 q 640 395 640 390 q 622 408 640 408 l 247 408 q 72 479 145 408 q 0 651 0 550 q 70 823 0 752 q 243 894 141 894 l 737 894 q 911 820 841 894 q 981 647 981 745 q 951 531 981 586 l 716 220 q 661 188 695 193 l 647 188 "},"ト":{"x_min":41.671875,"x_max":913.890625,"ha":935,"o":"m 559 345 q 529 322 529 354 l 529 229 q 457 56 529 127 q 284 -13 386 -13 q 112 56 183 -13 q 41 229 41 127 l 41 683 q 112 857 41 784 q 284 930 183 930 q 457 859 386 930 q 529 687 529 788 l 529 640 q 559 600 529 608 l 827 516 q 913 400 913 488 q 878 313 913 348 q 794 279 843 279 q 758 284 776 279 l 559 345 "},"フ":{"x_min":20.828125,"x_max":984.71875,"ha":1006,"o":"m 268 413 q 93 485 166 413 q 20 658 20 556 q 91 830 20 759 q 263 901 162 901 l 741 901 q 915 829 845 901 q 984 659 984 756 q 966 566 984 612 l 765 66 q 655 -9 734 -9 q 608 0 630 -9 q 531 111 531 30 q 540 158 531 134 l 631 386 q 611 415 643 415 q 341 415 459 415 q 266 415 270 415 q 268 413 268 415 "},"　":{"x_min":0,"x_max":0,"ha":417},"ミ":{"x_min":0,"x_max":880.5625,"ha":922,"o":"m 637 911 q 809 839 738 911 q 880 668 880 768 q 809 495 880 566 q 637 423 738 423 l 247 423 q 72 494 145 423 q 0 668 0 565 q 70 839 0 768 q 243 911 141 911 l 637 911 m 852 83 q 827 25 852 48 q 769 1 802 1 l 109 1 q 52 25 76 1 q 29 83 29 50 q 52 140 29 116 q 109 165 76 165 l 770 165 q 828 140 804 165 q 852 83 852 116 m 808 295 q 783 238 808 262 q 723 213 758 213 l 156 213 q 97 237 122 213 q 73 295 73 261 q 97 354 73 330 q 156 379 122 379 l 725 379 q 784 354 759 379 q 808 295 808 330 "},"ダ":{"x_min":20.828125,"x_max":1131.359375,"ha":1015,"o":"m 834 959 q 822 1019 808 986 l 861 1102 q 909 1136 875 1136 q 947 1119 931 1136 q 958 1059 972 1093 l 922 976 q 873 943 908 943 q 834 959 851 943 m 1002 919 q 990 979 976 945 l 1026 1062 q 1076 1094 1040 1094 q 1115 1079 1098 1094 q 1126 1019 1140 1051 l 1090 934 q 1041 902 1075 902 q 1002 919 1019 902 m 412 181 q 354 206 377 181 q 330 265 330 230 q 354 323 330 300 q 412 347 377 347 l 591 347 q 630 365 623 347 l 640 388 q 619 418 651 418 l 229 418 q 188 387 200 418 l 183 369 q 104 308 162 308 q 45 332 70 308 q 20 391 20 356 q 23 413 20 402 l 105 708 q 191 851 130 798 q 343 904 252 904 l 750 904 q 922 832 852 904 q 993 662 993 761 q 975 570 993 615 l 772 62 q 662 -13 741 -13 q 613 -5 637 -13 q 538 108 538 25 q 544 145 538 123 q 548 162 548 155 q 515 181 548 181 l 412 181 "},"ヲ":{"x_min":20.828125,"x_max":984.71875,"ha":1006,"o":"m 298 348 q 240 323 265 348 q 216 265 216 298 q 240 207 216 231 q 298 183 265 183 l 508 183 q 536 147 544 183 q 530 106 530 126 q 606 -1 530 29 q 654 -11 630 -11 q 763 65 733 -11 l 966 566 q 984 659 984 612 q 915 829 984 756 q 741 901 845 901 l 263 901 q 91 830 162 901 q 20 658 20 759 q 93 486 20 556 q 268 415 166 415 l 611 415 q 633 397 633 415 q 627 375 633 388 q 588 348 616 350 l 298 348 "},"ィ":{"x_min":20.828125,"x_max":741.671875,"ha":763,"o":"m 511 263 q 531 298 511 287 l 644 358 q 741 519 741 408 q 720 604 741 565 q 558 702 669 702 q 475 681 513 702 q 118 495 423 655 q 20 333 20 444 q 41 248 20 288 q 204 151 93 151 q 290 172 250 151 l 325 190 q 345 177 345 201 l 345 69 q 370 11 345 36 q 427 -12 394 -12 q 486 11 462 -12 q 511 69 511 36 l 511 263 "},"ザ":{"x_min":20.828125,"x_max":1174.40625,"ha":1058,"o":"m 877 959 q 865 1019 851 986 l 904 1102 q 952 1136 918 1136 q 990 1119 975 1136 q 1001 1059 1015 1093 l 965 976 q 916 943 951 943 q 877 959 894 943 m 1045 919 q 1033 979 1019 945 l 1069 1062 q 1119 1094 1083 1094 q 1158 1079 1141 1094 q 1169 1019 1183 1051 l 1133 934 q 1084 902 1119 902 q 1045 919 1062 902 m 390 377 q 366 351 370 377 q 341 296 365 319 q 286 273 318 273 q 227 297 252 273 q 204 356 202 322 q 177 394 205 387 q 64 480 108 413 q 20 622 20 547 q 64 759 20 697 q 177 848 108 822 q 204 884 188 855 q 286 956 215 956 q 366 886 351 956 q 387 865 380 865 l 588 865 q 619 888 609 865 q 663 940 631 920 q 730 959 695 959 q 800 937 766 959 q 843 881 833 915 q 869 851 850 856 q 988 764 944 827 q 1033 622 1033 701 q 984 473 1033 540 q 856 387 934 406 q 829 359 844 376 l 751 79 q 706 11 738 36 q 633 -12 673 -12 q 547 22 583 -12 q 511 102 511 56 q 516 138 511 120 l 575 347 q 551 377 583 377 l 390 377 "},"！":{"x_min":41.671875,"x_max":401.390625,"ha":443,"o":"m 222 284 q 349 337 297 284 q 401 465 401 390 l 401 741 q 349 868 401 816 q 222 920 297 920 q 94 867 147 920 q 41 738 41 813 l 41 465 q 94 337 41 390 q 222 284 147 284 m 222 237 q 113 202 158 237 q 69 115 69 166 q 113 27 69 63 q 222 -8 158 -8 q 329 27 284 -8 q 373 115 373 63 q 329 202 373 166 q 222 237 284 237 "},"ヂ":{"x_min":20.828125,"x_max":1070.25,"ha":975,"o":"m 773 959 q 761 1019 747 986 l 798 1102 q 848 1136 813 1136 q 886 1119 869 1136 q 897 1059 911 1093 l 861 976 q 812 943 847 943 q 773 959 790 943 m 941 919 q 929 979 915 945 l 965 1062 q 1015 1094 979 1094 q 1054 1079 1037 1094 q 1065 1019 1079 1051 l 1027 934 q 979 902 1013 902 q 941 919 956 902 m 873 393 q 931 368 906 393 q 955 311 955 344 q 930 252 955 276 q 872 227 905 227 l 701 227 q 659 198 670 227 l 611 68 q 500 -13 581 -13 q 456 -6 479 -13 q 375 105 375 22 q 380 147 375 125 l 401 198 q 402 208 402 202 q 379 227 402 227 l 102 227 q 45 252 69 227 q 20 311 20 276 q 44 369 20 345 q 102 393 68 393 l 406 393 q 431 415 431 393 q 406 436 431 436 l 268 436 q 94 506 166 436 q 22 679 22 577 q 93 851 22 780 q 265 922 163 922 l 679 922 q 851 851 780 922 q 922 679 922 780 q 857 513 922 583 q 697 437 793 443 q 686 433 691 436 q 675 413 675 427 q 697 393 676 394 l 873 393 "},"ケ":{"x_min":20.828125,"x_max":1016.671875,"ha":1038,"o":"m 218 373 q 186 351 193 373 q 104 279 162 279 q 43 303 66 279 q 20 361 20 327 q 23 384 20 372 l 165 891 q 243 951 181 951 q 298 931 270 951 q 325 886 326 911 q 345 861 323 861 l 773 861 q 945 790 873 861 q 1016 618 1016 719 q 959 459 1016 527 q 813 377 902 391 q 800 372 806 375 q 777 347 784 363 l 662 62 q 551 -13 631 -13 q 504 -5 527 -13 q 427 104 427 26 q 437 154 427 129 l 513 344 q 494 373 526 373 l 218 373 "},"ゾ":{"x_min":20.828125,"x_max":1132.75,"ha":1024,"o":"m 836 959 q 823 1019 809 986 l 862 1102 q 911 1136 876 1136 q 948 1119 933 1136 q 959 1059 973 1093 l 923 976 q 875 943 909 943 q 836 959 852 943 m 1004 919 q 991 979 977 945 l 1027 1062 q 1077 1094 1041 1094 q 1116 1079 1100 1094 q 1127 1019 1141 1051 l 1091 934 q 1043 902 1077 902 q 1004 919 1020 902 m 726 105 q 530 -11 663 -11 q 422 16 473 -11 q 305 211 305 79 q 333 319 305 268 l 581 784 q 665 873 611 841 q 783 905 720 905 q 887 879 838 905 q 1005 683 1005 813 q 977 575 1005 626 l 726 105 m 113 533 q 220 461 143 461 q 273 473 248 461 q 345 579 345 505 q 334 633 345 606 l 251 834 q 141 905 222 905 q 90 894 115 905 q 20 787 20 862 q 31 731 20 759 l 113 533 "},"タ":{"x_min":20.828125,"x_max":993.0625,"ha":1014,"o":"m 412 181 q 354 206 377 181 q 330 265 330 230 q 354 323 330 300 q 412 347 377 347 l 591 347 q 630 365 623 347 l 640 388 q 619 418 651 418 l 229 418 q 188 387 200 418 l 183 369 q 104 308 162 308 q 45 332 70 308 q 20 391 20 356 q 23 413 20 402 l 105 708 q 191 851 130 798 q 343 904 252 904 l 750 904 q 923 832 854 904 q 993 662 993 761 q 975 570 993 615 l 772 62 q 662 -13 741 -13 q 613 -5 637 -13 q 538 108 538 25 q 544 145 538 123 q 548 162 548 155 q 515 181 548 181 l 412 181 "},"ド":{"x_min":41.671875,"x_max":1016.078125,"ha":928,"o":"m 719 959 q 706 1019 693 986 l 745 1102 q 794 1136 759 1136 q 831 1119 816 1136 q 843 1059 856 1093 l 806 976 q 758 943 793 943 q 719 959 736 943 m 887 919 q 875 979 861 945 l 911 1062 q 961 1094 925 1094 q 1000 1079 983 1094 q 1011 1019 1025 1051 l 975 934 q 926 902 959 902 q 887 919 904 902 m 559 345 q 529 322 529 354 l 529 229 q 457 56 529 127 q 284 -13 386 -13 q 112 56 183 -13 q 41 229 41 127 l 41 683 q 112 857 41 784 q 284 930 183 930 q 457 859 386 930 q 529 687 529 788 l 529 640 q 559 600 529 608 l 827 516 q 913 400 913 488 q 879 314 913 350 q 795 279 844 279 q 758 284 777 279 l 559 345 "},"ホ":{"x_min":20.828125,"x_max":1000,"ha":1021,"o":"m 591 73 q 568 15 591 38 q 509 -8 544 -8 q 452 15 476 -8 q 429 73 429 38 l 427 356 q 395 388 427 388 l 268 388 q 93 459 166 388 q 20 631 20 530 q 91 804 20 733 q 263 875 162 875 l 402 875 q 431 902 420 875 q 509 962 454 962 q 590 901 573 962 q 619 875 613 875 l 755 875 q 929 804 858 875 q 1000 631 1000 734 q 929 459 1000 530 q 755 388 858 388 l 625 388 q 593 356 593 388 l 591 73 m 298 91 q 190 13 265 13 q 141 23 165 13 q 63 131 63 55 q 73 181 63 156 l 118 284 q 229 361 151 361 q 276 352 252 361 q 352 241 352 322 q 341 191 352 216 l 298 91 m 679 194 q 668 244 668 219 q 744 352 668 322 q 791 361 768 361 q 902 284 869 361 l 945 183 q 956 133 956 158 q 880 23 956 55 q 830 13 855 13 q 722 90 754 13 l 679 194 "},"ヴ":{"x_min":0,"x_max":1090.328125,"ha":1015,"o":"m 794 959 q 781 1019 766 986 l 819 1102 q 868 1136 834 1136 q 906 1119 890 1136 q 918 1059 931 1093 l 881 976 q 833 943 866 943 q 794 959 809 943 m 961 919 q 950 979 934 945 l 986 1062 q 1036 1094 1000 1094 q 1073 1079 1058 1094 q 1084 1019 1100 1051 l 1048 934 q 1000 902 1034 902 q 961 919 977 902 m 188 383 q 177 380 181 381 q 165 361 165 375 q 140 302 163 326 q 81 279 116 279 q 23 302 47 279 q 0 361 0 326 l 0 626 q 70 799 0 727 q 243 870 141 870 l 344 870 q 370 888 362 870 q 481 961 400 961 q 593 888 559 961 q 619 870 602 870 l 720 870 q 894 797 825 870 q 963 627 963 725 q 945 534 963 579 l 752 62 q 643 -13 722 -13 q 595 -5 618 -13 q 518 102 518 26 q 527 152 518 127 l 611 352 q 591 383 623 383 l 188 383 "},"ロ":{"x_min":41.671875,"x_max":941.671875,"ha":983,"o":"m 284 893 q 112 822 183 893 q 41 650 41 751 l 41 269 q 165 52 41 115 q 287 22 215 27 l 695 22 q 819 52 768 27 q 941 269 941 115 l 941 650 q 870 822 941 751 q 698 893 800 893 l 284 893 m 693 187 l 290 187 q 258 216 258 187 l 258 375 q 290 406 258 406 l 693 406 q 725 375 725 406 l 725 216 q 693 187 725 187 "},"ォ":{"x_min":20.828125,"x_max":755.5625,"ha":776,"o":"m 493 259 q 469 283 493 283 l 408 283 q 373 262 384 283 l 269 41 q 187 -12 244 -12 q 150 -5 169 -12 q 95 75 95 19 q 104 113 95 94 l 175 266 q 176 275 176 270 q 163 288 176 286 q 61 352 101 302 q 20 466 20 401 q 74 595 20 541 q 202 650 127 650 l 477 650 q 493 668 493 650 q 514 702 494 686 q 555 718 534 718 q 598 699 580 718 q 616 655 616 680 q 630 638 618 643 q 720 573 686 622 q 755 466 755 525 q 722 361 755 409 q 636 294 688 313 q 616 272 616 287 l 616 51 q 598 9 616 26 q 555 -8 580 -8 q 511 9 529 -8 q 493 51 493 26 l 493 259 "},"チ":{"x_min":20.828125,"x_max":955.5625,"ha":976,"o":"m 873 393 q 931 368 906 393 q 955 311 955 344 q 930 252 955 276 q 872 227 905 227 l 701 227 q 659 198 670 227 l 611 68 q 500 -13 581 -13 q 456 -6 479 -13 q 375 105 375 22 q 380 147 375 125 l 401 198 q 402 208 402 202 q 379 227 402 227 l 102 227 q 45 252 69 227 q 20 311 20 276 q 44 369 20 345 q 102 393 68 393 l 406 393 q 431 415 431 393 q 406 436 431 436 l 268 436 q 94 506 166 436 q 22 679 22 577 q 93 851 22 780 q 265 922 163 922 l 679 922 q 851 851 780 922 q 922 679 922 780 q 857 513 922 583 q 697 437 793 443 q 686 433 691 436 q 675 413 675 427 q 697 393 676 394 l 873 393 "},"ソ":{"x_min":20.828125,"x_max":1005.5625,"ha":1026,"o":"m 726 105 q 530 -11 663 -11 q 422 16 473 -11 q 305 211 305 79 q 333 319 305 268 l 581 784 q 665 873 611 841 q 783 905 720 905 q 887 879 838 905 q 1005 683 1005 813 q 977 575 1005 626 l 726 105 m 113 533 q 220 461 143 461 q 273 473 248 461 q 345 579 345 505 q 334 633 345 606 l 251 834 q 141 905 222 905 q 90 894 115 905 q 20 787 20 862 q 31 731 20 759 l 113 533 "},"ボ":{"x_min":20.828125,"x_max":1142.46875,"ha":1026,"o":"m 591 73 q 568 15 591 38 q 509 -8 544 -8 q 452 15 476 -8 q 427 73 427 38 l 427 356 q 395 388 427 388 l 268 388 q 93 459 166 388 q 20 631 20 530 q 91 804 20 733 q 263 875 162 875 l 402 875 q 431 902 420 875 q 509 962 454 962 q 590 901 573 962 q 619 875 613 875 l 755 875 q 929 804 858 875 q 1000 631 1000 734 q 929 459 1000 530 q 755 388 858 388 l 625 388 q 593 356 593 388 l 591 73 m 298 91 q 190 13 265 13 q 141 23 165 13 q 63 131 63 55 q 73 181 63 156 l 118 284 q 229 361 151 361 q 276 352 252 361 q 352 241 352 322 q 341 191 352 216 l 298 91 m 679 194 q 669 238 669 218 q 744 352 669 322 q 791 361 768 361 q 902 284 869 361 l 945 183 q 956 133 956 158 q 880 23 956 55 q 830 13 855 13 q 722 90 754 13 l 679 194 m 845 958 q 834 1018 819 984 l 872 1101 q 920 1133 886 1133 q 958 1118 943 1133 q 969 1058 983 1090 l 933 973 q 884 941 919 941 q 845 958 862 941 m 1013 918 q 1001 976 987 944 l 1037 1061 q 1087 1093 1052 1093 q 1126 1076 1111 1093 q 1137 1018 1151 1050 l 1101 933 q 1052 901 1087 901 q 1013 918 1030 901 "},"ヌ":{"x_min":20.828125,"x_max":933.328125,"ha":954,"o":"m 811 240 l 690 333 q 690 370 665 352 l 831 473 q 933 670 933 547 q 863 843 933 772 q 690 915 793 915 l 263 915 q 91 843 162 915 q 20 670 20 772 q 93 497 20 569 q 268 426 166 426 l 438 426 q 455 413 455 426 q 448 401 455 406 l 418 379 q 395 370 408 370 q 366 383 380 370 q 295 409 338 409 q 197 363 233 409 q 170 286 170 331 q 180 238 170 261 q 173 197 190 213 l 104 145 q 68 79 68 119 q 84 30 68 52 q 151 -4 108 -4 q 198 11 177 -4 l 431 181 q 483 181 456 200 l 668 41 q 737 19 698 19 q 840 72 802 19 q 862 141 862 102 q 811 240 862 201 "},"コ":{"x_min":20.828125,"x_max":912.5,"ha":954,"o":"m 669 895 q 840 825 769 895 q 912 652 912 754 l 912 272 q 788 55 912 118 q 666 25 737 30 l 156 25 q 99 49 123 25 q 75 106 75 73 q 99 165 75 141 q 156 190 123 190 l 663 190 q 695 219 695 190 l 695 377 q 663 409 695 409 l 268 409 q 93 480 166 409 q 20 652 20 551 q 91 825 20 754 q 263 895 162 895 l 669 895 "},"カ":{"x_min":20.828125,"x_max":998.609375,"ha":1019,"o":"m 376 73 q 352 15 376 38 q 293 -8 327 -8 q 235 15 259 -8 q 211 73 211 40 l 211 358 q 190 387 211 380 q 68 477 115 413 q 20 618 20 540 q 67 761 20 697 q 187 850 113 825 q 211 887 211 858 q 236 938 211 916 q 293 961 262 961 q 349 938 323 961 q 375 886 375 916 q 401 862 377 862 l 755 862 q 933 788 863 862 q 998 618 998 719 q 987 541 998 579 l 856 75 q 813 9 845 33 q 740 -13 780 -13 q 654 21 690 -13 q 619 105 619 56 q 625 143 619 123 l 681 344 q 658 375 690 375 l 406 375 q 376 344 376 375 l 376 73 "},"エ":{"x_min":20.828125,"x_max":929.171875,"ha":950,"o":"m 616 187 q 584 219 584 187 l 584 376 q 616 408 584 408 l 686 408 q 858 479 787 408 q 929 651 929 550 q 858 823 929 752 q 686 894 787 894 l 263 894 q 91 823 162 894 q 20 651 20 752 q 93 479 20 550 q 268 408 166 408 l 333 408 q 365 376 365 408 l 365 219 q 333 187 365 187 l 105 187 q 47 163 70 187 q 23 105 23 140 q 47 47 23 70 q 105 25 72 25 l 843 25 q 901 47 876 25 q 926 105 926 70 q 902 163 926 140 q 844 187 877 187 l 616 187 "},"ヨ":{"x_min":20.828125,"x_max":912.5,"ha":954,"o":"m 665 212 q 695 188 697 211 q 666 163 695 163 l 156 163 q 99 139 123 163 q 75 81 75 115 q 99 23 75 48 q 156 -1 123 -1 l 666 -1 q 788 30 737 4 q 912 247 912 91 l 912 670 q 840 843 912 772 q 669 913 769 913 l 263 913 q 91 843 162 913 q 20 670 20 772 q 93 497 20 568 q 268 427 166 427 l 666 427 q 695 401 694 427 q 665 377 695 379 l 206 377 q 147 353 172 377 q 123 294 123 329 q 148 236 123 261 q 206 212 173 212 l 665 212 "},"ョ":{"x_min":20.828125,"x_max":655.5625,"ha":697,"o":"m 480 138 q 501 122 502 137 q 480 104 501 104 l 118 104 q 77 86 94 104 q 59 45 59 69 q 77 4 59 22 q 118 -12 94 -12 l 480 -12 q 655 163 655 0 l 655 465 q 605 588 655 537 q 483 638 555 638 l 194 638 q 71 588 122 638 q 20 465 20 537 q 72 342 20 393 q 197 291 125 291 l 480 291 q 501 273 501 291 q 480 256 501 258 l 152 256 q 111 239 129 256 q 94 197 94 222 q 111 156 94 173 q 152 138 129 138 l 480 138 "},"ブ":{"x_min":20.828125,"x_max":1116.71875,"ha":1000,"o":"m 268 415 q 93 486 166 415 q 20 658 20 556 q 91 830 20 759 q 263 901 162 901 l 741 901 q 915 829 845 901 q 984 659 984 756 q 966 566 984 612 l 765 66 q 655 -9 734 -9 q 608 0 630 -9 q 531 111 531 30 q 540 158 531 134 l 631 386 q 611 415 643 415 l 268 415 m 820 958 q 808 1018 793 984 l 845 1101 q 894 1133 861 1133 q 933 1118 916 1133 q 944 1058 958 1090 l 906 973 q 859 941 893 941 q 820 958 836 941 m 987 918 q 976 976 961 944 l 1012 1061 q 1062 1093 1026 1093 q 1100 1076 1084 1093 q 1111 1018 1126 1050 l 1075 933 q 1026 901 1061 901 q 987 918 1004 901 "},"リ":{"x_min":41.671875,"x_max":961.109375,"ha":982,"o":"m 890 191 q 808 44 876 102 q 650 -13 740 -13 q 476 56 547 -13 q 405 227 405 127 q 408 265 405 247 l 477 715 q 560 865 491 805 q 719 925 629 925 q 891 853 822 925 q 961 681 961 781 q 958 644 961 662 l 890 191 m 284 787 l 284 468 q 249 381 284 416 q 163 345 213 345 q 77 381 112 345 q 41 468 41 416 l 41 788 q 77 874 41 838 q 163 909 112 909 q 249 873 213 909 q 284 787 284 837 "},"ヅ":{"x_min":20.828125,"x_max":1167.46875,"ha":1044,"o":"m 870 959 q 859 1019 844 986 l 897 1102 q 945 1136 911 1136 q 983 1119 968 1136 q 994 1059 1008 1093 l 958 976 q 909 943 944 943 q 870 959 887 943 m 1038 919 q 1026 979 1012 945 l 1062 1062 q 1112 1094 1077 1094 q 1151 1079 1136 1094 q 1162 1019 1176 1051 l 1126 934 q 1077 902 1112 902 q 1038 919 1055 902 m 183 838 q 101 901 168 902 q 44 876 68 900 q 20 819 20 852 q 23 800 20 809 l 91 513 q 175 451 106 448 q 231 475 208 451 q 254 533 254 500 q 251 552 254 543 l 183 838 m 469 602 q 480 588 473 588 q 491 600 486 588 l 593 784 q 677 873 622 841 q 793 905 731 905 q 897 879 848 905 q 1016 683 1016 813 q 988 575 1016 626 l 737 105 q 541 -11 673 -11 q 433 16 484 -11 q 316 211 316 79 q 343 319 316 268 l 398 423 q 402 436 402 430 q 387 452 402 447 q 322 513 334 463 l 254 800 q 251 819 251 809 q 275 876 251 852 q 331 901 298 900 q 413 838 398 902 l 469 602 "},"ハ":{"x_min":20.828125,"x_max":997.21875,"ha":1018,"o":"m 502 184 q 416 46 484 100 q 263 -6 348 -6 q 213 -1 238 -6 q 74 83 127 16 q 20 234 20 150 q 26 286 20 261 l 122 741 q 210 881 141 826 q 365 937 279 937 q 534 865 463 937 q 604 694 604 794 q 598 643 604 668 l 502 184 m 994 154 q 997 127 997 140 q 961 42 997 77 q 876 6 926 6 q 799 34 833 6 q 756 104 765 62 l 676 488 q 673 515 673 501 q 708 600 673 563 q 793 636 743 636 q 870 608 836 636 q 913 537 904 580 l 994 154 "},"ァ":{"x_min":20.828125,"x_max":747.21875,"ha":768,"o":"m 205 327 q 75 381 129 327 q 20 511 20 434 q 74 638 20 586 q 202 691 127 691 l 562 691 q 693 634 638 691 q 747 506 747 577 q 731 440 747 470 l 604 197 q 547 166 588 166 q 505 184 523 166 q 487 225 487 201 q 495 255 487 240 l 522 305 q 508 327 533 327 l 205 327 m 431 58 q 343 -12 412 -12 q 278 14 305 -12 q 251 79 251 41 q 254 98 251 88 l 288 233 q 377 304 308 304 q 442 277 415 304 q 469 212 469 251 q 466 193 469 202 l 431 58 "},"バ":{"x_min":20.828125,"x_max":1121.640625,"ha":1006,"o":"m 502 184 q 416 46 484 100 q 263 -6 348 -6 q 92 63 163 -6 q 20 236 20 134 q 26 286 20 259 l 123 741 q 210 881 141 826 q 365 937 279 937 q 534 865 463 937 q 604 694 604 794 q 600 643 604 668 l 502 184 m 994 154 q 997 127 997 140 q 962 42 997 77 q 876 6 927 6 q 800 34 833 6 q 756 104 766 62 l 676 488 q 673 513 673 501 q 708 600 673 563 q 793 636 743 636 q 870 608 836 636 q 913 537 905 580 l 994 154 m 825 958 q 813 1018 798 984 l 851 1101 q 900 1133 866 1133 q 937 1117 922 1133 q 952 1079 952 1101 q 948 1058 952 1068 l 912 973 q 863 941 898 941 q 825 958 841 941 m 993 918 q 981 976 966 944 l 1018 1061 q 1066 1093 1031 1093 q 1105 1076 1090 1093 q 1116 1018 1130 1050 l 1080 933 q 1031 901 1066 901 q 993 918 1009 901 "},"ジ":{"x_min":20.828125,"x_max":1119.5,"ha":1017,"o":"m 823 959 q 811 1019 795 986 l 848 1102 q 897 1136 863 1136 q 936 1119 919 1136 q 947 1059 961 1093 l 911 976 q 862 943 895 943 q 823 959 838 943 m 990 919 q 979 979 963 945 l 1015 1062 q 1065 1094 1029 1094 q 1102 1079 1087 1094 q 1113 1019 1129 1051 l 1077 934 q 1029 902 1063 902 q 990 919 1006 902 m 343 447 q 516 518 445 447 q 587 691 587 588 q 515 863 587 793 q 343 934 444 934 l 263 934 q 91 863 162 934 q 20 691 20 793 q 93 518 20 588 q 268 447 166 447 l 343 447 m 957 552 q 872 586 920 586 q 784 547 822 586 l 441 191 q 408 111 408 158 q 448 20 408 58 q 530 -11 483 -11 q 619 26 581 -11 q 961 381 629 37 q 994 466 994 416 q 957 552 994 518 m 491 336 q 468 394 491 370 q 409 418 444 418 l 195 418 q 136 394 161 418 q 112 336 112 370 q 136 277 112 301 q 195 254 159 254 l 408 254 q 467 277 443 254 q 491 336 491 301 "},"ワ":{"x_min":41.671875,"x_max":1005.5625,"ha":1026,"o":"m 655 384 q 634 416 668 416 l 237 415 q 206 387 205 415 l 206 358 q 182 301 206 325 q 123 277 158 277 q 65 300 90 277 q 41 358 41 323 l 43 684 q 122 839 52 776 q 284 902 191 902 l 763 902 q 937 830 869 902 q 1005 659 1005 758 q 988 568 1005 612 l 795 62 q 686 -13 766 -13 q 637 -4 661 -13 q 562 104 562 25 q 570 152 562 129 l 655 384 "},"ポ":{"x_min":20.828125,"x_max":1154.171875,"ha":1029,"o":"m 841 993 q 887 1103 841 1058 q 998 1148 933 1148 q 1108 1103 1062 1148 q 1154 993 1154 1058 q 1108 883 1154 929 q 998 837 1062 837 q 886 882 931 837 q 841 993 841 927 m 943 993 q 959 954 943 970 q 998 937 975 937 q 1036 954 1020 937 q 1052 993 1052 970 q 1036 1032 1052 1016 q 998 1048 1020 1048 q 959 1032 975 1048 q 943 993 943 1016 m 591 73 q 568 15 591 38 q 509 -8 544 -8 q 452 15 476 -8 q 429 73 429 38 l 427 356 q 395 388 427 388 l 268 388 q 93 459 166 388 q 20 631 20 530 q 91 804 20 733 q 263 875 162 875 l 402 875 q 431 902 420 875 q 509 962 454 962 q 590 901 573 962 q 619 875 613 875 l 755 875 q 929 804 858 875 q 1000 631 1000 734 q 929 459 1000 530 q 755 388 858 388 l 625 388 q 593 356 593 388 l 591 73 m 298 91 q 190 13 265 13 q 141 23 165 13 q 63 131 63 55 q 73 181 63 156 l 118 284 q 229 361 151 361 q 276 352 252 361 q 352 241 352 322 q 341 191 352 216 l 298 91 m 679 194 q 669 238 669 218 q 744 352 669 322 q 791 361 768 361 q 902 284 869 361 l 945 183 q 956 133 956 158 q 880 23 956 55 q 830 13 855 13 q 722 90 754 13 l 679 194 "},"ツ":{"x_min":20.828125,"x_max":1016.671875,"ha":1038,"o":"m 183 838 q 101 901 168 902 q 44 876 68 900 q 20 819 20 852 q 23 800 20 809 l 91 513 q 175 451 106 448 q 231 475 208 451 q 254 533 254 500 q 251 552 254 543 l 183 838 m 469 602 q 480 588 473 588 q 491 600 486 588 l 593 784 q 677 873 622 841 q 793 905 731 905 q 897 879 848 905 q 1016 683 1016 813 q 988 575 1016 626 l 737 105 q 541 -11 673 -11 q 433 16 484 -11 q 316 211 316 79 q 343 319 316 268 l 398 423 q 402 436 402 430 q 387 452 402 447 q 322 513 334 463 l 254 800 q 251 819 251 809 q 275 876 251 852 q 331 901 298 900 q 413 838 398 902 l 469 602 "},"ナ":{"x_min":20.828125,"x_max":1000,"ha":1021,"o":"m 606 76 q 563 11 595 36 q 488 -13 530 -13 q 403 22 437 -13 q 369 108 369 58 q 373 138 369 123 l 427 345 q 402 376 434 376 l 268 376 q 93 447 166 376 q 20 619 20 518 q 91 791 20 720 q 263 862 162 862 l 465 862 q 500 887 487 859 q 608 955 523 955 q 713 890 684 955 q 723 876 718 881 q 755 862 737 862 q 929 791 858 861 q 1000 619 1000 722 q 929 447 1000 518 q 755 376 858 376 l 719 376 q 679 345 687 376 l 606 76 "},"ヒ":{"x_min":41.671875,"x_max":936.109375,"ha":957,"o":"m 316 312 q 284 280 284 308 q 284 250 284 263 q 362 170 286 176 l 805 170 q 864 146 840 170 q 888 87 888 122 q 863 30 888 54 q 804 6 838 6 l 284 6 q 112 77 183 6 q 41 250 41 148 l 41 833 q 77 920 41 884 q 163 955 112 955 q 249 918 213 955 q 284 831 284 881 q 301 806 284 812 q 316 806 306 805 l 654 854 q 691 856 672 856 q 865 787 794 856 q 936 613 936 718 q 877 454 936 523 q 730 373 819 386 l 316 312 "},"テ":{"x_min":20.828125,"x_max":955.5625,"ha":976,"o":"m 694 922 q 867 852 795 922 q 938 679 938 781 q 867 506 938 577 q 694 436 795 436 l 284 436 q 110 506 183 436 q 37 679 37 577 q 108 851 37 780 q 280 922 179 922 l 694 922 m 102 227 q 45 252 69 227 q 20 311 20 276 q 44 369 20 345 q 102 393 68 393 l 873 393 q 931 369 906 393 q 955 311 955 345 q 930 252 955 277 q 872 227 905 227 l 697 227 q 654 198 666 227 l 604 68 q 490 -13 572 -13 q 403 22 440 -13 q 366 108 366 58 q 373 147 366 129 l 394 198 q 397 208 397 202 q 373 227 397 227 l 102 227 "},"グ":{"x_min":20.828125,"x_max":1134.140625,"ha":1018,"o":"m 837 959 q 826 1019 811 986 l 863 1102 q 912 1136 877 1136 q 950 1119 934 1136 q 961 1059 975 1093 l 925 976 q 876 943 911 943 q 837 959 854 943 m 1005 919 q 993 979 979 945 l 1029 1062 q 1079 1094 1044 1094 q 1118 1079 1102 1094 q 1129 1019 1143 1051 l 1093 934 q 1044 902 1079 902 q 1005 919 1022 902 m 105 708 q 191 851 130 798 q 343 904 252 904 l 750 904 q 923 832 854 904 q 993 662 993 761 q 975 570 993 615 l 772 62 q 662 -13 741 -13 q 613 -5 637 -13 q 537 105 537 25 q 547 154 537 130 l 640 388 q 619 418 651 418 l 229 418 q 188 387 200 418 l 183 369 q 104 308 162 308 q 45 332 70 308 q 20 391 20 356 q 23 413 20 402 l 105 708 "},"な":{"x_min":20.828125,"x_max":962.5,"ha":983,"o":"m 780 354 q 758 369 758 354 q 780 390 758 383 q 911 477 861 411 q 962 625 962 543 q 891 797 962 726 q 719 868 820 868 l 479 868 q 450 897 459 868 q 394 951 436 937 q 332 945 361 961 q 291 895 304 929 q 254 868 283 869 q 89 795 158 868 q 20 625 20 722 q 120 430 20 504 q 133 395 138 416 l 73 201 q 69 175 69 188 q 93 117 69 141 q 151 93 116 93 q 229 151 211 93 l 291 351 q 333 381 301 381 l 580 381 q 595 368 595 381 q 579 354 595 354 l 551 354 q 397 300 461 354 q 333 169 333 245 q 402 34 333 87 q 551 -13 466 -13 q 690 31 631 -13 q 758 159 754 81 q 791 191 761 191 l 852 191 q 911 215 887 191 q 934 273 934 240 q 911 330 934 306 q 852 354 887 354 l 780 354 m 594 169 q 551 147 594 147 q 501 169 501 147 q 551 191 501 194 q 594 169 591 190 "},"ュ":{"x_min":20.828125,"x_max":659.71875,"ha":681,"o":"m 548 143 q 565 120 543 120 l 601 120 q 643 103 626 120 q 659 61 659 86 q 642 20 659 37 q 600 2 625 2 l 79 2 q 38 20 55 2 q 20 61 20 37 q 38 103 20 86 q 79 120 55 120 l 341 120 q 370 143 363 120 l 398 254 q 381 276 404 276 l 229 276 q 104 327 156 276 q 52 450 52 377 q 103 572 52 522 q 226 623 154 623 l 447 623 q 570 572 520 623 q 620 451 620 520 q 615 408 620 429 l 548 143 "},"メ":{"x_min":0,"x_max":794.453125,"ha":836,"o":"m 683 454 q 691 409 666 426 l 740 376 q 794 273 794 338 q 775 208 794 238 q 672 154 737 154 q 605 173 636 154 l 561 204 q 518 194 534 220 l 456 94 q 255 -16 388 -16 q 120 23 181 -16 q 9 226 9 95 q 47 359 9 297 l 112 465 q 102 509 129 493 l 55 543 q 0 645 0 580 q 19 711 0 681 q 123 765 55 765 q 190 745 161 765 l 233 716 q 276 725 259 698 l 331 815 q 537 929 404 929 q 670 888 608 929 q 783 688 783 816 q 743 552 783 616 l 683 454 "},"ゥ":{"x_min":41.671875,"x_max":765.28125,"ha":786,"o":"m 183 284 q 165 269 175 284 q 147 225 165 243 q 104 206 129 206 q 59 225 77 206 q 41 269 41 243 l 41 466 q 95 596 41 543 q 223 650 148 650 l 300 650 q 319 663 313 650 q 402 718 341 718 q 486 663 461 718 q 506 650 493 650 l 581 650 q 713 595 661 650 q 765 468 765 541 q 751 398 765 431 l 606 44 q 523 -12 583 -12 q 487 -5 505 -12 q 430 75 430 16 q 437 112 430 93 l 500 262 q 484 284 508 284 l 183 284 "},"ネ":{"x_min":20.828125,"x_max":941.671875,"ha":963,"o":"m 556 68 q 532 11 556 34 q 475 -12 508 -12 q 417 11 441 -12 q 393 68 393 34 l 393 148 q 363 166 393 180 l 140 50 q 104 41 125 41 q 45 65 69 41 q 20 131 20 88 q 47 188 20 172 l 368 354 q 376 366 376 359 q 361 377 376 377 l 269 377 q 95 448 168 377 q 23 620 23 519 q 94 793 23 722 q 266 863 165 863 l 330 863 q 368 894 352 863 q 475 959 397 959 q 580 895 547 959 q 623 863 600 863 l 680 863 q 852 793 781 863 q 923 620 923 722 q 894 494 923 558 q 812 397 861 423 l 586 280 q 556 233 556 265 l 556 68 m 925 86 q 820 26 891 26 q 759 41 788 26 q 665 91 752 44 q 602 197 602 125 q 619 258 602 229 q 722 318 654 318 q 783 302 754 318 l 880 252 q 941 150 941 219 q 925 86 941 116 "},"ビ":{"x_min":41.671875,"x_max":1051.4375,"ha":963,"o":"m 316 312 q 284 280 284 308 q 284 250 284 263 q 362 170 286 176 l 805 170 q 864 146 840 170 q 888 87 888 122 q 863 30 888 54 q 804 6 838 6 l 284 6 q 112 77 183 6 q 41 250 41 148 l 41 833 q 77 920 41 884 q 163 955 112 955 q 249 918 213 955 q 284 831 284 881 q 301 806 284 812 q 316 806 306 805 l 654 854 q 691 856 673 856 q 865 787 794 856 q 936 613 936 718 q 877 454 936 523 q 730 373 819 386 l 316 312 m 755 958 q 743 1018 727 984 l 780 1101 q 829 1133 795 1133 q 868 1118 851 1133 q 879 1058 893 1090 l 841 973 q 794 941 827 941 q 755 958 770 941 m 922 918 q 911 976 895 944 l 947 1061 q 997 1093 961 1093 q 1034 1076 1019 1093 q 1045 1018 1061 1050 l 1009 933 q 961 901 995 901 q 922 918 938 901 "},"ゴ":{"x_min":20.828125,"x_max":1045.890625,"ha":950,"o":"m 750 959 q 737 1019 723 986 l 775 1102 q 825 1136 790 1136 q 862 1119 845 1136 q 873 1059 887 1093 l 837 976 q 788 943 822 943 q 750 959 765 943 m 916 919 q 905 979 891 945 l 941 1062 q 991 1094 955 1094 q 1029 1079 1013 1094 q 1040 1019 1055 1051 l 1004 934 q 955 902 990 902 q 916 919 933 902 m 669 895 q 840 825 769 895 q 912 652 912 754 l 912 272 q 788 55 912 118 q 666 25 737 30 l 156 25 q 99 49 123 25 q 75 106 75 73 q 99 165 75 141 q 156 190 123 190 l 663 190 q 695 219 695 190 l 695 377 q 663 409 695 409 l 268 409 q 93 480 166 409 q 20 652 20 551 q 91 825 20 754 q 263 895 162 895 l 669 895 "},"ガ":{"x_min":20.828125,"x_max":1134.140625,"ha":1018,"o":"m 837 959 q 826 1019 811 986 l 863 1102 q 912 1136 877 1136 q 950 1119 934 1136 q 961 1059 975 1093 l 925 976 q 876 943 911 943 q 837 959 854 943 m 1005 919 q 993 979 979 945 l 1029 1062 q 1079 1094 1044 1094 q 1118 1079 1101 1094 q 1129 1019 1143 1051 l 1093 934 q 1044 902 1079 902 q 1005 919 1022 902 m 376 73 q 352 15 376 38 q 293 -8 327 -8 q 235 15 259 -8 q 211 73 211 40 l 211 358 q 190 387 211 380 q 68 477 115 413 q 20 618 20 540 q 67 761 20 697 q 187 850 113 825 q 211 887 211 858 q 236 938 211 916 q 293 961 262 961 q 349 938 323 961 q 375 886 375 916 q 401 862 376 862 l 755 862 q 933 788 863 862 q 998 618 998 719 q 987 541 998 579 l 856 75 q 813 9 845 33 q 740 -13 780 -13 q 654 21 690 -13 q 619 105 619 56 q 625 143 619 123 l 681 344 q 658 375 690 375 l 406 375 q 376 344 376 375 l 376 73 "},"ル":{"x_min":41.671875,"x_max":1008.328125,"ha":1029,"o":"m 206 711 l 206 83 q 182 24 206 48 q 123 0 158 0 q 65 24 90 0 q 41 83 41 48 l 41 712 q 65 770 41 747 q 123 794 90 794 q 182 770 158 794 q 206 711 206 745 m 623 -1 q 550 -13 593 -13 q 361 56 431 -13 q 291 227 291 127 l 291 679 q 362 852 291 780 q 534 925 433 925 q 708 854 637 925 q 779 681 779 784 l 779 356 q 808 338 779 325 l 840 352 q 886 362 862 362 q 998 284 965 362 q 1008 236 1008 261 q 930 127 1008 159 l 623 -1 "},"ウ":{"x_min":41.671875,"x_max":1005.5625,"ha":1026,"o":"m 230 383 q 219 380 223 381 q 206 361 206 375 q 181 302 205 326 q 123 279 158 279 q 65 302 88 279 q 41 361 41 326 l 41 626 q 112 799 41 727 q 284 870 183 870 l 386 870 q 412 888 404 870 q 523 961 441 961 q 634 888 601 961 q 661 870 644 870 l 762 870 q 936 797 866 870 q 1005 627 1005 725 q 987 534 1005 579 l 794 62 q 684 -13 763 -13 q 637 -5 659 -13 q 559 102 559 26 q 569 152 559 127 l 652 352 q 633 383 665 383 l 230 383 "},"ク":{"x_min":20.828125,"x_max":993.0625,"ha":1014,"o":"m 105 708 q 191 851 130 798 q 343 904 252 904 l 750 904 q 923 832 854 904 q 993 662 993 761 q 975 570 993 615 l 772 62 q 662 -13 741 -13 q 613 -5 637 -13 q 537 105 537 25 q 547 154 537 130 l 640 388 q 619 418 651 418 l 229 418 q 188 387 200 418 l 183 369 q 104 308 162 308 q 45 332 70 308 q 20 391 20 356 q 23 413 20 402 l 105 708 "},"ア":{"x_min":20.828125,"x_max":988.890625,"ha":1010,"o":"m 266 438 q 93 511 165 438 q 20 683 20 583 q 91 855 20 784 q 263 926 162 926 l 743 926 q 919 848 845 926 q 988 679 988 773 q 968 590 988 631 l 798 266 q 727 222 776 222 q 688 233 708 222 q 644 302 644 256 q 654 343 644 323 l 688 411 q 672 438 702 438 l 266 438 m 569 81 q 450 -13 544 -13 q 364 22 401 -13 q 327 108 327 58 q 331 134 327 122 l 379 313 q 422 383 390 356 q 497 409 454 409 q 583 373 547 409 q 619 286 619 337 q 616 259 619 272 l 569 81 "},"ン":{"x_min":20.828125,"x_max":994.453125,"ha":1015,"o":"m 343 919 q 515 848 444 919 q 587 676 587 777 q 516 504 587 575 q 343 433 445 433 l 268 433 q 93 504 166 433 q 20 676 20 575 q 91 848 20 777 q 263 919 162 919 l 343 919 m 619 25 q 529 -13 580 -13 q 448 18 483 -13 q 408 109 408 55 q 441 190 408 156 l 784 544 q 875 584 823 584 q 957 550 920 584 q 994 462 994 515 q 961 379 994 413 l 619 25 "}}}
